<?xml version="1.0" standalone="no"?>
<!DOCTYPE svg PUBLIC "-//W3C//DTD SVG 1.1//EN" "http://www.w3.org/Graphics/SVG/1.1/DTD/svg11.dtd" >
<svg xmlns="http://www.w3.org/2000/svg">
<metadata></metadata>
<defs>
<font id="aaux_nextregular" horiz-adv-x="491" >
<font-face units-per-em="2048" ascent="1638" descent="-410" />
<missing-glyph horiz-adv-x="571" />
<glyph unicode="&#xfb02;" horiz-adv-x="1058" d="M102 883v106h105v78q0 363 358 363h301v-1194q0 -117 121 -130v-104q-120 5 -178.5 62.5t-58.5 171.5v1091h-185q-131 0 -186 -71.5t-55 -213.5v-53h211v-106h-211v-883h-117v883h-105z" />
<glyph unicode="&#xfb03;" horiz-adv-x="1636" d="M102 883v106h105v78q0 76 16.5 135.5t55 110.5t111 81t175.5 36v-103q-133 -9 -187 -77t-54 -208v-53h454v78q0 76 16.5 135.5t55.5 110.5t111.5 81t175.5 36v-103q-133 -9 -187.5 -77.5t-54.5 -207.5v-53h575v-989h-120v883h-455v-883h-117v883h-454v-883h-117v883h-105 zM1317 1354q0 38 28 65t66 27t66 -27t28 -65t-28 -66t-66 -28t-66 28t-28 66z" />
<glyph unicode="&#xfb04;" horiz-adv-x="1632" d="M102 883v106h105v78q0 76 16.5 135.5t55 110.5t111 81t175.5 36v-103q-133 -9 -187 -77t-54 -208v-53h454v78q0 363 359 363h301v-1194q0 -117 121 -130l2 -104q-122 5 -181 62.5t-59 171.5v1091h-184q-131 0 -186.5 -71.5t-55.5 -213.5v-53h211v-106h-211v-883h-117v883 h-454v-883h-117v883h-105z" />
<glyph horiz-adv-x="2048" />
<glyph horiz-adv-x="2048" />
<glyph unicode="&#xd;" horiz-adv-x="2048" />
<glyph unicode=" "  horiz-adv-x="571" />
<glyph unicode="&#x09;" horiz-adv-x="571" />
<glyph unicode="&#xa0;" horiz-adv-x="571" />
<glyph unicode="!" horiz-adv-x="604" d="M203 82q0 40 29.5 69t70.5 29q40 0 69 -29t29 -69q0 -41 -29 -70.5t-69 -29.5q-41 0 -70.5 29.5t-29.5 70.5zM229 768v662h144v-662l-23 -383h-96z" />
<glyph unicode="&#x22;" horiz-adv-x="747" d="M137 1106v328q0 29 21.5 50t50.5 21t49.5 -21t20.5 -50v-328h-142zM469 1106v328q0 29 20.5 50t49.5 21t50 -21t21 -50v-328h-141z" />
<glyph unicode="#" horiz-adv-x="1437" d="M115 434l22 105h258l76 352h-258l23 104h258l94 435h108l-94 -435h354l93 435h108l-92 -435h258l-23 -104h-260l-75 -352h260l-23 -105h-258l-94 -434h-109l95 434h-355l-94 -434h-106l92 434h-258zM504 539h354l76 352h-354z" />
<glyph unicode="$" horiz-adv-x="1071" d="M102 414l105 24q54 -188 289 -213v486q-65 15 -107.5 28t-94.5 38t-82.5 54.5t-51.5 76.5t-21 106q0 72 30.5 130t82.5 93.5t114 55t130 22.5v115h106v-115q213 -23 318 -195l-84 -59q-76 122 -234 145v-409q53 -13 93 -26t86 -32.5t78 -44.5t60 -58t42 -77t14 -98 q0 -150 -109 -241.5t-264 -104.5v-115h-106v117q-144 11 -250 85.5t-144 211.5zM250 1014q0 -36 14.5 -65t34.5 -47.5t56.5 -34.5t65 -25t75.5 -21v385q-46 -2 -87.5 -13t-78 -32.5t-58.5 -59.5t-22 -87zM602 223q108 10 185 71.5t77 164.5q0 42 -15 76t-38 56t-60 40.5 t-70 28.5t-79 22v-459z" />
<glyph unicode="%" horiz-adv-x="1644" d="M115 1053q0 62 9 117.5t31.5 107.5t55.5 89.5t84.5 60t116.5 22.5q80 0 139 -33.5t92 -91t48.5 -125.5t15.5 -147q0 -62 -9 -118t-31 -108t-55.5 -89.5t-84.5 -60t-115 -22.5q-65 0 -116.5 22.5t-84.5 60t-55.5 89.5t-31.5 108t-9 118zM215 1053q0 -301 197 -301 q194 0 194 301t-194 301q-197 0 -197 -301zM446 0l631 1430h121l-631 -1430h-121zM936 377q0 62 9.5 118t31.5 107.5t55.5 89t85 60t115.5 22.5q65 0 116.5 -22.5t84.5 -60t55 -89t31.5 -107.5t9.5 -118t-9.5 -118t-31.5 -107.5t-55 -89t-84.5 -60t-116.5 -22.5 q-64 0 -115.5 22.5t-85 60t-55.5 89t-31.5 107.5t-9.5 118zM1036 377q0 -41 4 -78t16.5 -79t33.5 -72t57.5 -50t85.5 -20q197 0 197 299t-197 299q-49 0 -85.5 -20t-57.5 -50t-33.5 -72t-16.5 -79t-4 -78z" />
<glyph unicode="&#x26;" horiz-adv-x="1368" d="M106 371q0 146 69 243.5t218 190.5q-73 106 -108 182t-35 160q0 131 84 214t215 83q132 0 212.5 -80t80.5 -209q0 -63 -21 -117.5t-63 -101t-89 -82.5t-114 -78q187 -250 414 -465q97 144 100 334h121q-7 -250 -131 -420q119 -106 170 -149l-76 -86q-66 52 -170 145 q-166 -155 -430 -155q-124 0 -224 44t-161.5 134t-61.5 213zM233 373q0 -89 49.5 -154.5t123.5 -96t159 -30.5q192 0 334 131q-228 211 -436 490q-79 -50 -125 -92t-75.5 -104.5t-29.5 -143.5zM369 1149q0 -125 125 -287q43 28 68 46t59.5 48t53 57t32.5 64t14 78 q0 77 -47 126.5t-125 49.5q-81 0 -130.5 -51.5t-49.5 -130.5z" />
<glyph unicode="'" horiz-adv-x="442" d="M150 1106v328q0 29 20 50t49 21t50.5 -21t21.5 -50v-328h-141z" />
<glyph unicode="(" horiz-adv-x="698" d="M145 715q0 194 83.5 387t232.5 328h135q-160 -140 -247 -334t-87 -381t85.5 -379t248.5 -336h-135q-150 133 -233 326t-83 389z" />
<glyph unicode=")" horiz-adv-x="698" d="M145 0q163 144 248.5 336t85.5 379q0 188 -86.5 381.5t-247.5 333.5h138q148 -135 230.5 -328t82.5 -387q0 -196 -82 -389t-231 -326h-138z" />
<glyph unicode="*" horiz-adv-x="907" d="M100 1149l31 98l281 -100l-9 295h101l-8 -295l280 100l31 -98l-285 -84l183 -236l-84 -59l-168 246l-166 -246l-84 59l182 236z" />
<glyph unicode="+" horiz-adv-x="1036" d="M96 504v114h365v365h117v-365h364v-114h-364v-367h-117v367h-365z" />
<glyph unicode="," horiz-adv-x="393" d="M113 86q0 39 26 67.5t62 28.5q41 0 68.5 -28t27.5 -68v-86l-133 -252h-51v338z" />
<glyph unicode="-" horiz-adv-x="811" d="M131 506v104h551v-104h-551z" />
<glyph unicode="." horiz-adv-x="503" d="M152 86q0 41 29 70.5t69 29.5q43 0 72.5 -29.5t29.5 -70.5t-29.5 -70.5t-72.5 -29.5q-40 0 -69 29.5t-29 70.5z" />
<glyph unicode="/" horiz-adv-x="856" d="M37 -156l661 1741h121l-661 -1741h-121z" />
<glyph unicode="0" horiz-adv-x="1177" d="M102 715q0 105 13.5 202t48 195t88 170t140.5 117t198 45q93 0 169 -31t127.5 -86t89.5 -124.5t59 -153.5t30.5 -165t9.5 -167t-9.5 -167.5t-30.5 -166t-59 -154t-89.5 -125.5t-127.5 -87t-169 -31t-169.5 31t-128.5 86.5t-90 125.5t-59.5 154.5t-31 165.5t-9.5 166z M229 715q0 -52 3 -102t13 -113t25.5 -116.5t43.5 -106.5t64.5 -90t91 -60t120.5 -23t120 23t90.5 60t64 90t43 106.5t25 116.5t12.5 113t3 102q0 53 -3 102.5t-12.5 112.5t-25.5 116t-43.5 105.5t-64 89.5t-90 59.5t-119.5 22.5t-120.5 -22.5t-91 -59.5t-64.5 -89.5 t-43.5 -105.5t-25.5 -116t-13 -112.5t-3 -102.5z" />
<glyph unicode="1" horiz-adv-x="757" d="M86 1196l322 234h102v-1430h-127v1270l-238 -166z" />
<glyph unicode="2" horiz-adv-x="1128" d="M125 0v92q22 98 60.5 183.5t85.5 147t102 116t110 96t109 80.5t100.5 76.5t81.5 77.5t55.5 89.5t20.5 106.5q0 124 -90.5 193t-218.5 69q-93 0 -172 -49t-127 -135l-109 59q137 244 408 244q191 0 313.5 -101.5t122.5 -281.5q0 -87 -32 -158.5t-85.5 -125t-119 -103 t-137 -103.5t-135.5 -114t-118.5 -147t-81.5 -191h744v-121h-887z" />
<glyph unicode="3" horiz-adv-x="1069" d="M102 258l115 43q36 -94 118 -145.5t187 -51.5q133 0 225.5 82t92.5 215q0 148 -95 220.5t-249 74.5v99q138 2 223.5 66.5t85.5 199.5q0 115 -90 191.5t-207 76.5q-92 0 -169 -49.5t-114 -132.5l-110 45q55 123 159 188.5t240 65.5q173 0 293.5 -107t120.5 -278 q0 -110 -54 -191t-155 -122q115 -40 181.5 -131t66.5 -216q0 -189 -126 -302t-317 -113q-152 0 -261.5 67.5t-160.5 204.5z" />
<glyph unicode="4" horiz-adv-x="1120" d="M84 365v118l598 947h135l-598 -949h551v545l119 -16v-529h135v-116h-135v-365h-119v365h-686z" />
<glyph unicode="5" horiz-adv-x="1095" d="M119 270l117 37q37 -95 115 -146.5t181 -51.5q165 0 253.5 104t88.5 266q0 158 -87 261.5t-250 103.5q-151 0 -265 -105h-116v691h745v-117h-633v-453q126 98 273 98q217 0 337.5 -132t120.5 -347q0 -220 -124 -355.5t-345 -135.5q-147 0 -254 74t-157 208z" />
<glyph unicode="6" horiz-adv-x="1107" d="M98 487q0 275 134 527.5t360 415.5h153q-404 -297 -505 -738q111 199 331 199q196 0 318.5 -131t122.5 -328q0 -195 -127 -320.5t-324 -125.5q-140 0 -246.5 68t-161.5 181t-55 252zM229 438q0 -134 99 -231.5t233 -97.5q138 0 232 94t94 231q0 145 -91 242.5t-235 97.5 q-136 0 -234 -99.5t-98 -236.5z" />
<glyph unicode="7" horiz-adv-x="1015" d="M76 1190v240h864v-111q-83 -103 -149 -201t-128.5 -224.5t-103.5 -257.5t-64.5 -294.5t-21.5 -341.5h-137q-3 749 463 1311h-611v-121h-112z" />
<glyph unicode="8" horiz-adv-x="1101" d="M96 403q0 121 62.5 215.5t191.5 143.5q-102 39 -155.5 126.5t-53.5 182.5q0 165 118.5 269t289.5 104t290 -104t119 -269q0 -96 -51 -181.5t-159 -127.5q132 -50 195 -143.5t63 -215.5q0 -188 -130.5 -303.5t-326.5 -115.5t-324.5 115t-128.5 304zM223 408 q0 -133 96.5 -217.5t231.5 -84.5t230.5 84.5t95.5 217.5q0 138 -93 217.5t-235 79.5t-234 -78.5t-92 -218.5zM264 1069q0 -122 81.5 -192t203.5 -70q125 0 205 69t80 193q0 114 -84.5 188t-200.5 74q-114 0 -199.5 -74.5t-85.5 -187.5z" />
<glyph unicode="9" horiz-adv-x="1081" d="M90 995q0 190 125 320.5t315 130.5q140 0 244.5 -70t156.5 -183t52 -251q0 -266 -126 -519.5t-357 -422.5h-162q92 70 163.5 139.5t142.5 159.5t121 200.5t75 235.5q-107 -178 -316 -178q-188 0 -311 126t-123 312zM209 1001q0 -132 92.5 -227.5t226.5 -95.5 q140 0 231 93.5t91 229.5q0 132 -94 228t-228 96t-226.5 -96.5t-92.5 -227.5z" />
<glyph unicode=":" horiz-adv-x="503" d="M152 82q0 41 29 70.5t69 29.5q43 0 72.5 -29.5t29.5 -70.5t-29.5 -70.5t-72.5 -29.5q-40 0 -69 29.5t-29 70.5zM152 723q0 42 29 72t69 30q43 0 72.5 -29.5t29.5 -72.5q0 -41 -29.5 -69.5t-72.5 -28.5q-40 0 -69 28.5t-29 69.5z" />
<glyph unicode=";" horiz-adv-x="419" d="M113 84q0 40 26.5 69t61.5 29q41 0 68.5 -29t27.5 -69v-86l-133 -250h-51v336zM113 723q0 43 27 72.5t65 29.5t65 -29.5t27 -72.5q0 -41 -27 -69.5t-65 -28.5t-65 28.5t-27 69.5z" />
<glyph unicode="&#x3c;" horiz-adv-x="978" d="M109 715l593 715h154l-592 -715l592 -715h-154z" />
<glyph unicode="=" horiz-adv-x="1071" d="M117 250v115h839v-115h-839zM117 686v113h839v-113h-839z" />
<glyph unicode="&#x3e;" horiz-adv-x="978" d="M123 0l592 715l-592 715h153l594 -715l-594 -715h-153z" />
<glyph unicode="?" horiz-adv-x="1007" d="M82 1085q5 114 66 198t152.5 123.5t199.5 39.5q177 0 295 -101.5t118 -271.5q0 -47 -11 -87t-26.5 -66t-42 -51t-47.5 -39t-53 -33q-98 -55 -139 -110t-45 -144l-10 -164h-82q-13 162 -13 166q0 56 11 101.5t26 75t42 56.5t48 42t54 34q6 4 29 17.5t29.5 18t25.5 17 t25.5 20t20 21t18.5 25t12 27.5t9.5 34t2.5 39q0 120 -85 190t-212 70q-75 0 -140.5 -25.5t-112.5 -83.5t-52 -139h-113zM401 80q0 39 29.5 67.5t69.5 28.5t69 -28t29 -68q0 -41 -29 -69.5t-69 -28.5t-69.5 28.5t-29.5 69.5z" />
<glyph unicode="@" horiz-adv-x="1468" d="M123 481q0 119 35.5 250.5t103.5 256t158 224.5t209.5 161t247.5 61q92 0 169 -34t129.5 -92t89 -135t53.5 -162t17 -175q0 -53 -21 -152.5t-22 -116.5l-37 -569l-106 6l14 246q-64 -119 -160 -197t-217 -78q-75 0 -134 33.5t-94.5 88.5t-54 121t-18.5 136q0 98 36.5 209 t98.5 208t157 160.5t200 63.5q156 0 237 -196q6 70 -1.5 142.5t-32 143t-63 125t-101 88t-139.5 33.5q-93 0 -181 -40t-158 -106.5t-129.5 -153.5t-98.5 -181.5t-61 -190.5t-22 -180q0 -124 44 -235.5t132 -184.5l-57 -84q-111 82 -167 218.5t-56 287.5zM596 356 q0 -64 16.5 -123.5t61 -106t110.5 -46.5q81 0 156 54.5t125 135t79.5 169.5t29.5 161q0 62 -19 126t-65.5 114.5t-110.5 50.5q-82 0 -156.5 -55.5t-122.5 -138.5t-76 -174t-28 -167z" />
<glyph unicode="A" horiz-adv-x="1292" d="M23 0l548 1430h148l549 -1430h-135l-162 424h-652l-159 -424h-137zM362 537h566l-283 745z" />
<glyph unicode="B" horiz-adv-x="1257" d="M152 0v1430h491q103 0 185.5 -21t147.5 -64.5t100.5 -118.5t35.5 -177q0 -60 -19 -115t-64.5 -107t-115.5 -88q130 -45 192 -137t62 -207q0 -107 -37 -185t-104.5 -123t-153 -66t-192.5 -21h-528zM279 121h401q59 0 107.5 6.5t97 24.5t81.5 47.5t53.5 79.5t20.5 116 q0 279 -360 279h-401v-553zM279 782h376q57 0 103.5 6.5t90 25t73 47.5t47.5 76t18 110t-19.5 111t-51 76t-77.5 45.5t-92 23.5t-102 6h-366v-527z" />
<glyph unicode="C" horiz-adv-x="1200" d="M90 715q0 118 19 223t63 199.5t109.5 162.5t165 108t223.5 40q144 0 244 -51.5t198 -165.5l-92 -86q-78 90 -156.5 133t-193.5 43q-104 0 -184.5 -36.5t-130 -95t-81 -139.5t-43.5 -162.5t-12 -172.5t12 -172.5t43.5 -162.5t81 -139.5t130 -95t184.5 -36.5 q115 0 194.5 44t157.5 136l92 -84q-69 -80 -127.5 -126t-136.5 -71.5t-180 -25.5q-123 0 -222.5 40t-165 108.5t-110 163t-63.5 199.5t-19 222z" />
<glyph unicode="D" horiz-adv-x="1294" d="M152 0v1430h407q141 0 242.5 -17.5t170 -60.5t109.5 -94.5t62.5 -141t28 -177.5t6.5 -224q0 -116 -4.5 -194t-19 -160t-41.5 -133t-72 -99t-111 -73.5t-158 -40.5t-213 -15h-407zM279 127h301q170 0 267.5 34.5t143.5 110.5q18 29 29.5 73t17 76.5t8.5 100t3 90.5v103 v102t-3 90.5t-8.5 100.5t-17 77t-29.5 74q-46 77 -143.5 111.5t-267.5 34.5h-301v-1178z" />
<glyph unicode="E" horiz-adv-x="1169" d="M152 0v1430h915v-125h-788v-506h688v-119h-688v-555h788v-125h-915z" />
<glyph unicode="F" horiz-adv-x="1128" d="M152 0v1430h895v-125h-768v-506h688v-117h-688v-682h-127z" />
<glyph unicode="G" horiz-adv-x="1275" d="M90 715q0 116 19.5 220.5t63.5 199.5t109.5 163.5t163.5 109t220 40.5q143 0 242.5 -54.5t195.5 -170.5l-90 -80q-78 92 -155.5 135t-192.5 43q-105 0 -185.5 -36.5t-129.5 -94.5t-80 -139.5t-42.5 -162.5t-11.5 -173q0 -62 5.5 -120.5t20 -120t36.5 -114t57 -99.5 t79.5 -80t107 -52.5t136.5 -19.5q85 0 150 30t105 78.5t65.5 118t35 141t9.5 154.5h-346v114h473v-745h-115v236q-56 -138 -149 -196t-232 -58q-122 0 -219 41t-161 110t-106.5 164t-60.5 199t-18 219z" />
<glyph unicode="H" horiz-adv-x="1337" d="M152 0v1430h127v-631h780v631h129v-1430h-129v680h-780v-680h-127z" />
<glyph unicode="I" d="M180 0v1430h129v-1430h-129z" />
<glyph unicode="J" horiz-adv-x="1095" d="M59 293l123 33q36 -107 118 -161t196 -54q171 0 250 79.5t79 245.5v994h127v-998q0 -221 -114 -333.5t-340 -112.5q-169 0 -282 78.5t-157 228.5z" />
<glyph unicode="K" horiz-adv-x="1140" d="M152 0v1430h127v-1430h-127zM295 717l588 713h147l-588 -709l641 -721h-161z" />
<glyph unicode="L" horiz-adv-x="1044" d="M152 0v1430h127v-1311h704v-119h-831z" />
<glyph unicode="M" horiz-adv-x="1499" d="M145 0v1430h129l476 -1254l477 1254h127v-1430h-127v1118l-424 -1118h-109l-422 1114v-1114h-127z" />
<glyph unicode="N" horiz-adv-x="1290" d="M152 0v1430h124l736 -1192v1192h127v-1430h-123l-737 1192v-1192h-127z" />
<glyph unicode="O" horiz-adv-x="1318" d="M90 715q0 117 18 220.5t60 199t106 164t162.5 109t222.5 40.5t222.5 -40.5t163 -108.5t107.5 -163.5t61 -199.5t18 -221t-18 -220.5t-61 -199t-107.5 -164t-163 -109t-222.5 -40.5t-222.5 40.5t-162.5 109t-106 164t-60 199t-18 220.5zM217 715q0 -92 10.5 -172 t40.5 -162t77.5 -140t128 -95t185.5 -37t185.5 37t128.5 95t78 140t40.5 162t10.5 172t-10.5 172t-40.5 162t-78 140t-128.5 95t-185.5 37t-185.5 -37t-128 -95t-77.5 -140t-40.5 -162t-10.5 -172z" />
<glyph unicode="P" horiz-adv-x="1226" d="M152 0v1430h530q218 0 343.5 -94.5t125.5 -301.5q0 -108 -33 -186t-96.5 -123.5t-146.5 -66.5t-191 -21h-405v-637h-127zM279 756h399q76 0 133.5 12t108 41.5t77.5 86t27 138.5q0 65 -19 114.5t-49.5 79t-76.5 48t-94 25t-107 6.5h-399v-551z" />
<glyph unicode="Q" horiz-adv-x="1316" d="M90 715q0 117 18.5 221t61 199.5t106.5 163.5t162 108.5t221 40.5q124 0 223 -41t163.5 -109.5t107 -164t60.5 -199t18 -219.5q0 -165 -30 -293t-116 -240l148 -182h-158l-78 96q-151 -114 -338 -114q-123 0 -221 41t-162 110t-107 164t-61 198.5t-18 219.5zM217 717 q0 -89 11 -169t41.5 -161.5t78.5 -139.5t127 -95t182 -37q134 0 244 86q-54 60 -109 92.5t-122 42.5v102q95 -11 169.5 -47t153.5 -112q67 96 88 199.5t21 236.5q0 91 -10.5 171t-40.5 162.5t-77.5 140.5t-127.5 95t-184 37q-76 0 -139.5 -19t-108.5 -51.5t-80 -79 t-57 -98.5t-35.5 -114t-19 -120t-5.5 -122z" />
<glyph unicode="R" horiz-adv-x="1236" d="M152 0v1430h491q212 0 336.5 -97t124.5 -297q0 -161 -98 -257.5t-287 -119.5q54 -37 112 -133l320 -526h-150l-303 510q-40 67 -83 103t-113 36h-223v-649h-127zM279 764h364q332 0 332 272q0 269 -332 269h-364v-541z" />
<glyph unicode="S" horiz-adv-x="1232" d="M90 352l123 23q18 -75 61 -130t102.5 -85t124.5 -44t140 -14q68 0 133 18t120.5 52.5t89.5 93.5t34 133q0 68 -30 118.5t-81 81.5t-117 53.5t-139 40t-145.5 35.5t-138.5 45.5t-117 65t-81 98.5t-30 142q0 91 39 162.5t104.5 115t146 65.5t169.5 22q176 0 297.5 -66.5 t196.5 -212.5l-113 -51q-59 113 -152 161t-229 48q-57 0 -111.5 -12.5t-105.5 -38.5t-82 -76t-31 -117q0 -59 30 -103t81 -70.5t117 -47t139 -38t145.5 -37t138.5 -50.5t117 -72.5t81 -108t30 -153.5q0 -99 -42.5 -179.5t-114 -131.5t-161.5 -78.5t-188 -27.5 q-463 0 -551 370z" />
<glyph unicode="T" horiz-adv-x="1130" d="M47 1305v125h1036v-125h-454v-1305h-127v1305h-455z" />
<glyph unicode="U" horiz-adv-x="1310" d="M137 606v824h129v-820q0 -84 8.5 -151.5t34 -135.5t67.5 -113t113 -73t166 -28q96 0 167.5 28t113.5 73t67.5 112.5t34.5 135t9 152.5v820h127v-824q0 -143 -26.5 -253t-85 -195.5t-161 -130.5t-246.5 -45q-518 0 -518 624z" />
<glyph unicode="V" horiz-adv-x="1175" d="M35 1430h135l418 -1248l420 1248h133l-484 -1430h-139z" />
<glyph unicode="W" horiz-adv-x="1634" d="M53 1430h131l279 -1217l295 1217h119l292 -1217l281 1217h131l-334 -1430h-145l-285 1190l-285 -1190h-145z" />
<glyph unicode="X" horiz-adv-x="1218" d="M57 0l478 737l-449 693h152l372 -582l371 582h152l-449 -693l477 -737h-151l-400 627l-401 -627h-152z" />
<glyph unicode="Y" horiz-adv-x="1179" d="M53 1430h144l395 -812l395 812h141l-473 -957v-473h-129v473z" />
<glyph unicode="Z" horiz-adv-x="1189" d="M90 0v111l823 1194h-755v125h915v-117l-817 -1186h823v-127h-989z" />
<glyph unicode="[" horiz-adv-x="593" d="M150 -135v1700h342v-78h-224v-1542h224v-80h-342z" />
<glyph unicode="\" horiz-adv-x="856" d="M37 1585h121l661 -1741h-121z" />
<glyph unicode="]" horiz-adv-x="593" d="M131 -55h225v1542h-225v78h342v-1700h-342v80z" />
<glyph unicode="^" horiz-adv-x="1083" d="M111 823l370 611h123l371 -611l-98 -53l-334 559l-336 -559z" />
<glyph unicode="_" horiz-adv-x="1077" d="M49 0h981v-100h-981v100z" />
<glyph unicode="`" horiz-adv-x="643" d="M162 1403h149l172 -309h-106z" />
<glyph unicode="a" horiz-adv-x="970" d="M86 279q0 132 93 208.5t245 79.5h154q35 1 54 3.5t48 14t49 33.5v95q0 82 -70.5 133t-154.5 51q-86 0 -157 -35.5t-103 -109.5l-107 36q89 220 371 220q84 0 160.5 -34.5t126 -101t49.5 -149.5v-563l33 -150l-103 -24l-31 110q-138 -119 -303 -119q-153 0 -253.5 79 t-100.5 223zM201 279q0 -65 36.5 -110.5t89 -65t113.5 -19.5q87 0 155.5 29.5t133.5 93.5v305q-47 -25 -73 -32t-64 -7h-160q-97 0 -164 -49t-67 -145z" />
<glyph unicode="b" horiz-adv-x="1015" d="M141 0v1430h121v-564q90 140 270 140q110 0 190 -41t124 -114t64 -161t20 -196q0 -86 -12 -159t-41 -139.5t-74 -112.5t-115 -73.5t-160 -27.5q-200 0 -280 145l-4 -127h-103zM262 338q0 -110 76.5 -175t187.5 -65q60 0 107.5 16.5t77.5 47t50 66.5t30 84t14 90t4 92 q0 61 -5 110.5t-23 105t-47.5 92.5t-82.5 62t-125 25q-111 0 -187.5 -66t-76.5 -176v-309z" />
<glyph unicode="c" horiz-adv-x="964" d="M86 494q0 147 49 261t152.5 183.5t249.5 69.5q110 0 186.5 -37t153.5 -119l-86 -78q-57 61 -115.5 91t-138.5 30q-90 0 -155.5 -33.5t-101 -92t-51.5 -126.5t-16 -149q0 -63 9.5 -119t33 -108.5t59.5 -90t92.5 -60t129.5 -22.5q80 0 138.5 30t115.5 91l86 -78 q-77 -82 -153 -117.5t-187 -35.5q-146 0 -249.5 69t-152.5 182t-49 259z" />
<glyph unicode="d" horiz-adv-x="1032" d="M86 496q0 86 12.5 159.5t42.5 139t76 111.5t116.5 73t160.5 27q72 0 145 -32t117 -100v556h121v-1258q0 -1 17 -79.5t17 -80.5l-106 -28l-29 131q-100 -133 -287 -133q-403 0 -403 514zM209 494q0 -62 5 -112t22.5 -105.5t47.5 -92.5t83 -61.5t125 -24.5q110 0 187 65.5 t77 174.5v311q0 107 -76 173.5t-186 66.5q-73 0 -126.5 -24.5t-83 -61t-47.5 -92t-23 -105t-5 -112.5z" />
<glyph unicode="e" horiz-adv-x="989" d="M86 494q0 111 25 202t76 161.5t136.5 109.5t198.5 39q186 0 283.5 -127.5t97.5 -333.5v-70h-690q7 -381 326 -381q161 0 254 103l81 -74q-132 -141 -335 -141q-116 0 -204 38t-142 107t-80.5 161t-26.5 206zM213 563h575q-2 71 -17.5 128t-45.5 104t-83 72.5t-124 25.5 q-278 0 -305 -330z" />
<glyph unicode="f" horiz-adv-x="612" d="M102 883v106h105v78q0 76 16.5 135.5t55 110.5t111 81t175.5 36v-103q-133 -9 -187 -77t-54 -208v-53h211v-106h-211v-883h-117v883h-105z" />
<glyph unicode="g" horiz-adv-x="1009" d="M82 -121q0 41 10 70l109 -33q-4 -24 -4 -37q0 -54 48.5 -93t109 -55t118.5 -16q56 0 115 16t112 45.5t87 79.5t34 111q0 58 -44.5 89.5t-102.5 31.5q-56 0 -162 -22.5t-160 -22.5q-81 0 -136.5 36t-55.5 105q0 56 30.5 111t90.5 98q-150 81 -150 279q0 166 92 250t262 84 q160 0 248 -72q77 29 86 100h105q-7 -129 -123 -180q41 -93 41 -182q0 -163 -94 -246.5t-265 -83.5q-51 0 -114 14q-109 -69 -109 -155q0 -68 80 -68q60 0 175.5 28.5t174.5 28.5q106 0 177 -60.5t71 -160.5q0 -107 -70 -191.5t-173.5 -126.5t-213.5 -42q-71 0 -139 15.5 t-127.5 46t-96 84.5t-36.5 124zM246 672q0 -114 61.5 -171t177.5 -57q117 0 179.5 57t62.5 171t-63 168.5t-177 54.5q-241 0 -241 -223z" />
<glyph unicode="h" horiz-adv-x="1042" d="M141 0v1430h121v-566q41 72 118.5 108t158.5 36q201 0 296 -118.5t95 -326.5v-563h-121v563q0 74 -13.5 130t-44.5 102t-88 70t-137 24q-96 0 -180 -64.5t-84 -160.5v-664h-121z" />
<glyph unicode="i" horiz-adv-x="452" d="M133 1354q0 38 27 65t65 27q40 0 68.5 -27t28.5 -65t-28.5 -66t-68.5 -28q-38 0 -65 28t-27 66zM164 0v989h121v-989h-121z" />
<glyph unicode="j" horiz-adv-x="446" d="M-80 -338q244 18 244 287v1040h119v-1048q0 -170 -82 -271.5t-254 -113.5zM131 1354q0 38 28 65t66 27t66 -27t28 -65t-28 -66t-66 -28t-66 28t-28 66z" />
<glyph unicode="k" horiz-adv-x="897" d="M137 0v1430h119v-1430h-119zM268 526l387 463h131l-385 -459l461 -530h-141z" />
<glyph unicode="l" horiz-adv-x="446" d="M137 236v1194h117v-1194q0 -117 121 -130v-104q-238 9 -238 234z" />
<glyph unicode="m" horiz-adv-x="1591" d="M141 0v989h105l2 -131q41 76 111.5 113t138.5 37q221 0 311 -201q79 201 295 201q80 0 142.5 -22t104 -61t68.5 -96t39 -123t12 -145v-561h-118v561q0 55 -5 98.5t-21 88t-42.5 74.5t-72 48.5t-107.5 18.5q-242 0 -242 -342v-547h-119v561q0 55 -5.5 98.5t-21.5 88 t-43 74.5t-72.5 48.5t-106.5 18.5q-88 0 -161 -64.5t-73 -150.5v-674h-119z" />
<glyph unicode="n" horiz-adv-x="1048" d="M141 0v989h105l4 -131q48 76 124 113t156 37q207 0 303.5 -117.5t96.5 -329.5v-561h-121v559q0 75 -13.5 131.5t-44 103t-87.5 71t-138 24.5q-110 0 -187 -73t-77 -163v-653h-121z" />
<glyph unicode="o" horiz-adv-x="1019" d="M86 492q0 114 22 204.5t70.5 161.5t132 109.5t199.5 38.5q115 0 198.5 -38.5t132 -109.5t71 -161.5t22.5 -204.5q0 -113 -22.5 -202.5t-71 -160t-132 -109t-198.5 -38.5t-199 38.5t-132.5 109t-70.5 160t-22 202.5zM209 492q0 -66 6.5 -118t26 -106t51.5 -89.5t87.5 -58 t129.5 -22.5t129 22.5t87 58.5t52 89t26.5 106t6.5 118q0 66 -6.5 119t-26 107t-51.5 90t-87.5 58.5t-129.5 22.5t-129.5 -22.5t-87.5 -58.5t-51.5 -90t-26 -107t-6.5 -119z" />
<glyph unicode="p" horiz-adv-x="1015" d="M141 -451v1440h105l4 -137q49 81 124.5 119.5t153.5 38.5q112 0 192.5 -41.5t125 -115.5t64.5 -162.5t20 -196.5q0 -86 -12 -159.5t-41.5 -139.5t-74.5 -112.5t-115.5 -73.5t-160.5 -27q-172 0 -264 141v-574h-121zM262 340q0 -95 79 -168.5t185 -73.5q60 0 107.5 16.5 t77.5 47t50 66.5t30 84t14 90t4 92q0 62 -5 111t-22.5 104.5t-47.5 93t-83 62t-125 24.5q-104 0 -184 -74.5t-80 -165.5v-309z" />
<glyph unicode="q" horiz-adv-x="1017" d="M84 496q0 87 12 160t41 140t74 113t116 73.5t162 27.5q80 0 156 -35.5t127 -106.5l29 133l108 -28l-35 -152v-1272h-120v566q-102 -133 -262 -133q-90 0 -160.5 27t-116.5 73.5t-76 112.5t-42.5 140t-12.5 161zM207 494q0 -62 5.5 -112.5t23 -105.5t47.5 -92t83.5 -61.5 t125.5 -24.5q107 0 184.5 71t77.5 171v309q0 100 -78.5 170t-186.5 70q-72 0 -125 -24.5t-82.5 -61.5t-47 -92.5t-22.5 -105t-5 -111.5z" />
<glyph unicode="r" horiz-adv-x="784" d="M141 0v989h105l4 -139q44 79 122 117.5t163 38.5q97 0 184 -43l-51 -101q-74 29 -133 29q-109 0 -191 -70t-82 -170v-651h-121z" />
<glyph unicode="s" horiz-adv-x="929" d="M84 236l109 24q26 -89 103.5 -128.5t184.5 -39.5q42 0 83.5 9.5t81 29.5t63.5 57t24 86q0 56 -34.5 94t-89 59t-121 37t-133 35t-121 46t-89 77t-34.5 121q0 87 49 148t123.5 88t165.5 27q126 0 210.5 -41.5t143.5 -139.5l-96 -51q-72 121 -250 121q-37 0 -72.5 -6.5 t-72 -21.5t-59 -47t-22.5 -77q0 -48 34.5 -81t89.5 -51t121 -33t132.5 -35t121.5 -49.5t89.5 -84t34.5 -130.5q0 -93 -55 -162.5t-138 -102t-178 -32.5q-154 0 -260.5 61t-138.5 193z" />
<glyph unicode="t" horiz-adv-x="591" d="M66 883v106h145v293h121v-293h168v-106h-168v-641q0 -74 30.5 -104t104.5 -32v-106h-43q-108 0 -160.5 64t-52.5 172v647h-145z" />
<glyph unicode="u" horiz-adv-x="1042" d="M121 412v577h121v-571q0 -77 12.5 -132t43 -98.5t86.5 -65.5t138 -22q60 0 120 26t103 79t43 119v665h121v-989h-104l-4 121q-113 -137 -281 -137q-209 0 -304 107.5t-95 320.5z" />
<glyph unicode="v" horiz-adv-x="960" d="M47 989h129l303 -835l305 835h131l-374 -989h-121z" />
<glyph unicode="w" horiz-adv-x="1521" d="M43 989h129l244 -821l286 821h113l285 -823l250 823h127l-314 -989h-119l-286 807l-283 -807h-121z" />
<glyph unicode="x" horiz-adv-x="946" d="M47 0l354 510l-335 479h149l258 -379l256 379h148l-334 -479l354 -510h-147l-277 410l-278 -410h-148z" />
<glyph unicode="y" horiz-adv-x="964" d="M47 989h127l307 -839l307 839h130l-469 -1239q-40 -106 -114.5 -154.5t-187.5 -48.5h-26v107h24q82 0 126 33.5t69 101.5l78 205z" />
<glyph unicode="z" horiz-adv-x="948" d="M86 0v117l612 755h-569v117h721v-110l-617 -762h617v-117h-764z" />
<glyph unicode="{" horiz-adv-x="716" d="M102 659v111q46 -1 79 8t53 25.5t31.5 44t15 55t3.5 66.5t-3 71.5t-6 77t-3 76.5q0 93 16 158.5t53.5 114.5t105 73t167.5 23v-105q-123 0 -175 -61t-52 -207q0 -32 3.5 -80t6 -84.5t3 -80.5t-7.5 -77t-24.5 -65t-48 -54t-77.5 -34q46 -12 77.5 -34t48 -53.5t24.5 -65 t7.5 -77.5t-3 -80t-6 -83.5t-3.5 -79.5q0 -148 52 -209.5t175 -61.5v-104q-99 -1 -167 23t-105.5 74t-53.5 115t-16 157q0 35 4 87t6 88t1.5 79t-10 71.5t-28.5 53t-55 35.5t-88 9z" />
<glyph unicode="|" horiz-adv-x="505" d="M199 -156v1741h110v-1741h-110z" />
<glyph unicode="}" horiz-adv-x="716" d="M102 -29q123 0 175.5 62t52.5 209q0 34 -4.5 92.5t-7 98.5t2 90.5t19 84.5t48.5 63.5t87 43.5q-53 14 -87 43.5t-48.5 63.5t-19 84.5t-2 91t7 99t4.5 93.5q0 146 -52.5 207t-175.5 61v105q100 1 167.5 -23t105 -73t53.5 -114.5t16 -158.5q0 -32 -3 -76.5t-6 -77t-3 -71.5 t3.5 -66.5t15 -55t31.5 -44t53 -25.5t79 -8v-111q-52 2 -88 -9t-55 -35.5t-28.5 -53t-10 -71.5t1.5 -79t6 -88t4 -87q0 -92 -16 -157t-53.5 -115t-105.5 -74t-167 -23v104z" />
<glyph unicode="~" horiz-adv-x="985" d="M104 602q92 129 218 129q51 0 98 -21.5t77.5 -47t74 -47t87.5 -21.5q83 0 146 94l76 -67q-51 -63 -101 -97.5t-116 -34.5q-42 0 -80.5 14t-68 34.5t-58 41t-63.5 34.5t-72 14q-77 0 -144 -95z" />
<glyph unicode="&#xa1;" horiz-adv-x="628" d="M203 891q0 41 29.5 70.5t70.5 29.5q40 0 69 -29.5t29 -70.5t-29 -70.5t-69 -29.5q-41 0 -70.5 29.5t-29.5 70.5zM229 203l23 385h98l23 -385v-662h-144v662z" />
<glyph unicode="&#xa2;" horiz-adv-x="1003" d="M111 494q0 108 28.5 199t84.5 160.5t147 108.5t209 39l32 152l70 -14l-31 -148q78 -14 135 -48.5t115 -94.5l-86 -78q-42 42 -85 69t-103 38l-162 -760q64 -19 110 -19q75 4 129.5 34t110.5 87l86 -80q-79 -81 -155 -117t-185 -36q-53 0 -121 18l-34 -170l-70 12l39 177 q-134 63 -199 189t-65 282zM238 494q0 -54 5.5 -97t21.5 -91.5t49 -90.5t83 -76l160 752q-92 -6 -157 -41.5t-99 -93.5t-48.5 -121.5t-14.5 -140.5z" />
<glyph unicode="&#xa3;" horiz-adv-x="1071" d="M92 655l25 115h112q-39 170 -39 254q0 184 104.5 300t287.5 116q128 0 207.5 -40.5t168.5 -137.5l-92 -76q-66 72 -128 105.5t-156 33.5q-134 0 -201.5 -86.5t-67.5 -218.5q0 -20 1.5 -42.5t3.5 -39.5t6.5 -43.5t7 -39.5t8.5 -44t8 -41h268l-24 -115h-219 q26 -140 26 -223q0 -143 -75 -315h641v-117h-793v98q109 189 109 344q0 87 -29 213h-160z" />
<glyph unicode="&#xa4;" horiz-adv-x="1288" d="M100 492l19 96h121q-6 116 -4 198h-136l19 95h129q16 122 57.5 223t109.5 179t170 121.5t230 43.5q123 0 211.5 -38t167.5 -118l-80 -96q-68 65 -137 95t-162 30q-189 0 -297.5 -120.5t-134.5 -319.5h491l-18 -95h-489q-2 -121 4 -198h503l-18 -96h-469q39 -177 149 -280 t279 -103q93 0 163 31.5t138 97.5l82 -95q-85 -86 -170 -123.5t-213 -37.5q-224 0 -370.5 138t-190.5 372h-154z" />
<glyph unicode="&#xa5;" horiz-adv-x="1179" d="M61 1430h125l406 -828l405 828h125l-329 -666h188l-23 -96h-213l-88 -181h324l-23 -98h-311v-389h-112v389h-336l22 98h305l-88 181h-239l22 96h168z" />
<glyph unicode="&#xa6;" horiz-adv-x="624" d="M266 -154v770h96v-770h-96zM266 815v770h96v-770h-96z" />
<glyph unicode="&#xa7;" horiz-adv-x="1097" d="M131 565q0 171 135 283q-92 95 -92 223q0 159 106.5 260t268.5 101q245 0 391 -271l-102 -53q-25 44 -50.5 78t-61 65.5t-80.5 48.5t-97 17q-112 0 -184 -69.5t-72 -176.5q0 -45 16 -80.5t38 -56.5t62.5 -39.5t70.5 -27t81 -21.5q72 -18 125.5 -36.5t110 -50t92.5 -70.5 t59 -97t23 -131q0 -167 -133 -283q90 -90 90 -221q0 -160 -106 -261.5t-269 -101.5q-246 0 -391 273l102 53q114 -211 289 -211q113 0 184.5 70t71.5 178q0 33 -8.5 60t-20 46.5t-35 36.5t-41.5 27.5t-52 22t-54 17t-59 15.5q-71 18 -124.5 36.5t-109.5 50t-92 70t-59 96.5 t-23 130zM252 565q0 -50 19.5 -91.5t48.5 -69.5t74 -51t86 -36t93 -26q96 -20 166 -51q111 75 111 221q0 51 -19 92.5t-48.5 69t-74 50.5t-85 36t-93.5 26q-105 26 -165 53q-113 -77 -113 -223z" />
<glyph unicode="&#xa8;" horiz-adv-x="993" d="M217 1200q0 38 26 65t64 27t65 -27t27 -65t-27 -64t-65 -26t-64 26t-26 64zM594 1200q0 38 27.5 65t64.5 27q38 0 65 -27t27 -65t-27 -64t-65 -26q-37 0 -64.5 26t-27.5 64z" />
<glyph unicode="&#xa9;" horiz-adv-x="1628" d="M96 713q0 146 57 279.5t153 230t229.5 154t279.5 57.5t279.5 -57.5t229.5 -154t153 -230t57 -279.5q0 -117 -36.5 -226.5t-103 -198t-154.5 -155t-198 -103t-227 -36.5t-227 36.5t-198 103t-154.5 155t-103 198t-36.5 226.5zM186 713q0 -170 84 -315t229 -229.5 t316 -84.5q170 0 315 84.5t229.5 229.5t84.5 315q0 171 -84.5 316t-229.5 229.5t-315 84.5q-171 0 -316 -84.5t-229 -229.5t-84 -316zM514 713q0 64 10.5 121t34.5 107.5t60 86.5t88.5 57t117.5 21q74 0 127 -26.5t105 -84.5l-62 -55q-37 42 -76 63t-94 21q-65 0 -111 -28.5 t-69 -76.5t-33 -98.5t-10 -107.5q0 -56 10 -105.5t33 -97.5t69 -76t111 -28q57 0 96 21.5t76 64.5l62 -58q-53 -60 -105 -86t-127 -26q-81 0 -142.5 31.5t-98 86.5t-54.5 124t-18 149z" />
<glyph unicode="&#xaa;" horiz-adv-x="833" d="M94 864q0 108 76.5 171.5t200.5 66.5h121q27 0 42 1t37.5 9t38.5 23v71q0 63 -55 102.5t-119 39.5q-158 0 -207 -117l-96 29q79 188 305 188q106 0 190.5 -65.5t84.5 -165.5v-482l26 -73l-94 -29l-27 65q-63 -43 -116 -60t-119 -17q-125 0 -207 63.5t-82 179.5zM195 868 q0 -73 56.5 -111t133.5 -38q123 0 225 96v225q-55 -24 -108 -24q-119 0 -127 -2q-76 -2 -128 -39t-52 -107zM279 401v88h280v-88h-280z" />
<glyph unicode="&#xab;" horiz-adv-x="1015" d="M102 473v98l414 398v-140l-323 -307l323 -307v-139zM489 473v98l412 398v-140l-321 -307l321 -307v-139z" />
<glyph unicode="&#xac;" horiz-adv-x="1058" d="M96 498v94h852v-397h-90v303h-762z" />
<glyph unicode="&#xad;" horiz-adv-x="811" d="M131 506v104h551v-104h-551z" />
<glyph unicode="&#xae;" horiz-adv-x="1628" d="M96 713q0 146 57 279.5t153 230t229.5 154t279.5 57.5t279.5 -57.5t229.5 -154t153 -230t57 -279.5q0 -117 -36.5 -226.5t-103 -198t-154.5 -155t-198 -103t-227 -36.5t-227 36.5t-198 103t-154.5 155t-103 198t-36.5 226.5zM186 713q0 -170 84 -315t229 -229.5 t316 -84.5q170 0 315 84.5t229.5 229.5t84.5 315q0 171 -84.5 316t-229.5 229.5t-315 84.5q-171 0 -316 -84.5t-229 -229.5t-84 -316zM569 338v754h265q115 0 182 -53.5t67 -161.5q0 -79 -47.5 -137.5t-138.5 -65.5q8 -10 34 -47t76.5 -116t106.5 -173h-102l-146 248 q-26 42 -50.5 62t-61.5 20h-103v-330h-82zM651 737h185q165 0 165 140q0 133 -165 133h-185v-273z" />
<glyph unicode="&#xaf;" horiz-adv-x="1030" d="M231 1137v100h570v-100h-570z" />
<glyph unicode="&#xb0;" horiz-adv-x="618" d="M111 1354q0 82 58 140t140 58q83 0 141 -58t58 -140q0 -83 -58 -142t-141 -59q-82 0 -140 59t-58 142zM180 1354q0 -54 37.5 -92.5t91.5 -38.5q53 0 91 38.5t38 92.5q0 52 -38 90.5t-91 38.5q-54 0 -91.5 -38t-37.5 -91z" />
<glyph unicode="&#xb1;" horiz-adv-x="1073" d="M117 0v104h839v-104h-839zM117 561v107h366v362h109v-362h364v-107h-364v-362h-109v362h-366z" />
<glyph unicode="&#xb2;" horiz-adv-x="716" d="M78 532v60q17 79 52 145t77 109.5t88.5 80.5t89.5 67.5t77.5 61t55.5 68.5t21 84q0 79 -57 122.5t-138 43.5q-59 0 -109 -31t-81 -86l-68 39q85 154 258 154q121 0 199 -64t78 -178q0 -55 -20 -100.5t-54 -79.5t-75.5 -65.5t-87 -66t-86.5 -72.5t-75.5 -93t-52.5 -121 h473v-78h-565z" />
<glyph unicode="&#xb3;" horiz-adv-x="677" d="M63 696l74 29q24 -60 76.5 -93.5t118.5 -33.5q86 0 144.5 52t58.5 136q0 95 -61.5 141t-160.5 48v61q90 2 144.5 43t54.5 127q0 72 -57.5 121t-130.5 49q-60 0 -109 -31t-72 -83l-69 28q35 78 101 119t153 41q109 0 184.5 -68t75.5 -176q0 -145 -131 -198q73 -27 114 -84 t41 -138q0 -119 -79 -190.5t-199 -71.5q-207 0 -271 172z" />
<glyph unicode="&#xb4;" horiz-adv-x="614" d="M145 1094l174 309h148l-213 -309h-109z" />
<glyph unicode="&#xb6;" horiz-adv-x="1032" d="M113 1032q0 165 118.5 281.5t288.5 116.5h330v-1737h-113v1622h-108v-1622h-115v942q-114 5 -206 58.5t-143.5 143t-51.5 195.5z" />
<glyph unicode="&#xb7;" horiz-adv-x="507" d="M137 543q0 49 33.5 82.5t83.5 33.5q48 0 82.5 -33.5t34.5 -82.5q0 -47 -35 -82t-82 -35q-49 0 -83 34.5t-34 82.5z" />
<glyph unicode="&#xb8;" horiz-adv-x="1024" d="M362 -403l189 270l-68 153l82 29l80 -190l-145 -262h-138z" />
<glyph unicode="&#xb9;" horiz-adv-x="481" d="M53 1292l205 148h66v-908h-80v807l-152 -106z" />
<glyph unicode="&#xba;" horiz-adv-x="884" d="M96 1034q0 91 18.5 163.5t58 130t108 89t161.5 31.5t161.5 -31.5t108 -89t58 -130t18.5 -163.5q0 -416 -346 -416q-93 0 -161.5 31t-108 88.5t-58 130.5t-18.5 166zM205 1032q0 -65 9 -114.5t33 -96.5t73 -72.5t122 -25.5q59 0 103 18t69.5 46t40.5 70.5t20 83t5 91.5 t-5 92t-20 83.5t-40.5 71t-69.5 46.5t-103 18t-102.5 -18t-69 -46.5t-40.5 -71t-20 -83.5t-5 -92zM305 401v88h279v-88h-279z" />
<glyph unicode="&#xbb;" horiz-adv-x="1015" d="M102 76v139l322 307l-322 307v140l412 -398v-98zM487 76v139l324 307l-324 307v140l414 -398v-98z" />
<glyph unicode="&#xbc;" horiz-adv-x="1554" d="M92 1296l242 144h49v-875h-90v748l-156 -92zM385 2l631 1428h94l-631 -1428h-94zM942 223v82l348 572h107l-342 -566h280l4 293l68 -14v-277h59v-90h-59v-221h-92v221h-373z" />
<glyph unicode="&#xbd;" horiz-adv-x="1632" d="M92 1296l242 144h49v-875h-88v748l-158 -92zM385 2l629 1428h96l-629 -1428h-96zM1018 2v76q65 169 207 311q117 114 159.5 171.5t42.5 103.5q0 67 -46 97t-99 30q-97 0 -164 -119l-80 43q93 164 244 164q95 0 166.5 -57.5t71.5 -157.5q0 -68 -46.5 -135t-175.5 -191 q-92 -87 -172 -248h394v-88h-502z" />
<glyph unicode="&#xbe;" horiz-adv-x="1712" d="M106 1280q30 77 96 120.5t146 43.5q104 0 179 -68.5t75 -165.5q0 -108 -110 -188q126 -87 126 -213q0 -106 -76.5 -181t-185.5 -75q-86 0 -152 48t-95 130l86 29q21 -52 63.5 -84.5t97.5 -32.5q71 0 120.5 48.5t49.5 117.5q0 68 -50 118t-120 50h-39v80h31q68 0 115 45.5 t47 107.5q0 59 -47.5 102.5t-114.5 43.5q-51 0 -92.5 -29t-60.5 -76zM541 2l630 1428h97l-631 -1428h-96zM1100 223v82l346 572h108l-344 -566h283l4 293l68 -14v-277h57v-90h-57v-221h-92v221h-373z" />
<glyph unicode="&#xbf;" horiz-adv-x="1007" d="M82 -100q0 -173 117 -273t295 -102q108 -1 200 38.5t153 124t66 199.5l-112 -2q-7 -117 -98.5 -183.5t-208.5 -66.5q-126 0 -211 71.5t-84 193.5q0 21 2 39t8.5 34t11.5 28t18.5 25t20 20t25.5 19.5t26 16.5t30 17.5t30 17.5q42 25 67.5 44.5t54.5 55t43 87t15 120.5 l-12 172h-84l-9 -170q-4 -86 -46 -141.5t-140 -110.5q-33 -19 -53 -32.5t-47 -39t-42 -51t-26 -65t-10 -86.5zM397 891q0 42 28 71t69 29t69.5 -29.5t28.5 -70.5q0 -40 -28.5 -68t-69.5 -28t-69 28t-28 68z" />
<glyph unicode="&#xc0;" horiz-adv-x="1292" d="M23 0l548 1430h148l549 -1430h-135l-162 424h-652l-159 -424h-137zM356 1855h150l172 -309h-107zM362 537h566l-283 745z" />
<glyph unicode="&#xc1;" horiz-adv-x="1292" d="M23 0l548 1430h148l549 -1430h-135l-162 424h-652l-159 -424h-137zM362 537h566l-283 745zM608 1546l174 309h148l-213 -309h-109z" />
<glyph unicode="&#xc2;" horiz-adv-x="1292" d="M23 0l548 1430h148l549 -1430h-135l-162 424h-652l-159 -424h-137zM362 537h566l-283 745zM362 1548l222 303h121l221 -303h-133l-150 232l-147 -232h-134z" />
<glyph unicode="&#xc3;" horiz-adv-x="1292" d="M23 0l548 1430h148l549 -1430h-135l-162 424h-652l-159 -424h-137zM344 1649q37 58 77 85t99 27q41 0 76.5 -17t57 -38t52 -38t62.5 -17q62 0 106 75l72 -65q-42 -58 -80.5 -85.5t-95.5 -27.5q-40 0 -75 17.5t-57 38t-53 38t-63 17.5q-36 0 -59.5 -19t-48.5 -55zM362 537 h566l-283 745z" />
<glyph unicode="&#xc4;" horiz-adv-x="1292" d="M23 0l548 1430h148l549 -1430h-135l-162 424h-652l-159 -424h-137zM362 537h566l-283 745zM365 1653q0 38 26.5 65t63.5 27q38 0 65 -27t27 -65t-27 -64t-65 -26q-37 0 -63.5 26t-26.5 64zM741 1653q0 38 28 65t67 27q37 0 63.5 -27t26.5 -65t-26.5 -64t-63.5 -26 q-39 0 -67 26t-28 64z" />
<glyph unicode="&#xc5;" horiz-adv-x="1292" d="M23 0l548 1430h148l549 -1430h-135l-162 424h-652l-159 -424h-137zM362 537h566l-283 745zM434 1761q0 87 62 148t151 61q86 0 147.5 -61.5t61.5 -147.5q0 -88 -61.5 -150.5t-147.5 -62.5q-89 0 -151 62.5t-62 150.5zM532 1761q0 -47 33.5 -79.5t81.5 -32.5q45 0 78 32.5 t33 79.5q0 45 -33 78t-78 33q-47 0 -81 -32.5t-34 -78.5z" />
<glyph unicode="&#xc6;" horiz-adv-x="1880" d="M31 0l807 1430h948v-125h-731v-502h635v-123h-635v-555h731v-125h-858v424h-516l-238 -424h-143zM475 537h453v749h-31z" />
<glyph unicode="&#xc7;" horiz-adv-x="1247" d="M113 715q0 118 19 223t63 199.5t109.5 162.5t164.5 108t223 40q144 0 244.5 -58t202.5 -180l-92 -77q-80 96 -159.5 142t-195.5 46q-105 0 -186.5 -36.5t-130 -94t-79.5 -139.5t-42.5 -163t-11.5 -173t11.5 -173t42.5 -163t79.5 -139.5t130 -94t186.5 -36.5 q116 0 195.5 46t159.5 142l92 -78q-89 -106 -179.5 -164t-209.5 -69l61 -144l-133 -248h-135l174 256l-60 134q-118 5 -212 48t-155.5 111t-102 161.5t-57.5 195t-17 215.5z" />
<glyph unicode="&#xc8;" horiz-adv-x="1169" d="M152 0v1430h915v-125h-788v-506h688v-119h-688v-555h788v-125h-915zM424 1855h149l172 -309h-106z" />
<glyph unicode="&#xc9;" horiz-adv-x="1169" d="M152 0v1430h915v-125h-788v-506h688v-119h-688v-555h788v-125h-915zM424 1546l174 309h147l-215 -309h-106z" />
<glyph unicode="&#xca;" horiz-adv-x="1169" d="M152 0v1430h915v-125h-788v-506h688v-119h-688v-555h788v-125h-915zM334 1548l219 303h123l221 -303h-133l-150 232l-147 -232h-133z" />
<glyph unicode="&#xcb;" horiz-adv-x="1169" d="M152 0v1430h915v-125h-788v-506h688v-119h-688v-555h788v-125h-915zM303 1653q0 38 27 65t65 27q37 0 64.5 -27t27.5 -65t-27.5 -64t-64.5 -26q-38 0 -65 26t-27 64zM682 1653q0 38 27 65t65 27q37 0 63.5 -27t26.5 -65t-26.5 -64t-63.5 -26q-38 0 -65 26t-27 64z" />
<glyph unicode="&#xcc;" d="M-35 1855h150l172 -309h-107zM180 0v1430h129v-1430h-129z" />
<glyph unicode="&#xcd;" d="M170 1546l174 309h148l-213 -309h-109zM180 0v1430h129v-1430h-129z" />
<glyph unicode="&#xce;" d="M-37 1548l221 303h123l221 -303h-135l-149 232l-148 -232h-133zM180 0v1430h129v-1430h-129z" />
<glyph unicode="&#xcf;" d="M-35 1653q0 38 27 65t65 27q37 0 65 -27t28 -65t-28 -64t-65 -26q-38 0 -65 26t-27 64zM180 0v1430h129v-1430h-129zM344 1653q0 38 27 65t65 27t64 -27t26 -65t-26 -64t-64 -26t-65 26t-27 64z" />
<glyph unicode="&#xd0;" horiz-adv-x="1341" d="M92 659v103h88v668h428q98 0 170.5 -7.5t146.5 -32t124.5 -66t87.5 -112.5t51 -170q16 -123 16 -327q0 -206 -16 -326q-10 -71 -32 -128.5t-51.5 -97.5t-72 -69.5t-87 -47.5t-102.5 -28.5t-112 -14t-123 -3.5h-428v659h-88zM309 127h299q58 0 97.5 1.5t87.5 8t80 18.5 t66.5 33t56.5 51t39.5 74t25.5 101q14 107 14 301q0 196 -14 303q-8 57 -25.5 101t-40.5 74t-58 51t-67.5 33t-80.5 18.5t-86.5 8t-94.5 1.5h-299v-543h320v-103h-320v-532z" />
<glyph unicode="&#xd1;" horiz-adv-x="1290" d="M152 0v1430h124l736 -1192v1192h127v-1430h-123l-737 1192v-1192h-127zM344 1649q37 58 77 85t99 27q41 0 76.5 -17t57 -38t52 -38t62.5 -17q62 0 106 75l72 -65q-41 -57 -80.5 -85t-95.5 -28q-40 0 -75 17.5t-57 38t-53 38t-63 17.5q-36 0 -59.5 -19t-48.5 -55z" />
<glyph unicode="&#xd2;" horiz-adv-x="1318" d="M90 715q0 117 18 220.5t60 199t106 164t162.5 109t222.5 40.5t222.5 -40.5t163 -108.5t107.5 -163.5t61 -199.5t18 -221t-18 -220.5t-61 -199t-107.5 -164t-163 -109t-222.5 -40.5t-222.5 40.5t-162.5 109t-106 164t-60 199t-18 220.5zM217 715q0 -92 10.5 -172 t40.5 -162t77.5 -140t128 -95t185.5 -37t185.5 37t128.5 95t78 140t40.5 162t10.5 172t-10.5 172t-40.5 162t-78 140t-128.5 95t-185.5 37t-185.5 -37t-128 -95t-77.5 -140t-40.5 -162t-10.5 -172zM498 1855h149l172 -309h-106z" />
<glyph unicode="&#xd3;" horiz-adv-x="1318" d="M90 715q0 117 18 220.5t60 199t106 164t162.5 109t222.5 40.5t222.5 -40.5t163 -108.5t107.5 -163.5t61 -199.5t18 -221t-18 -220.5t-61 -199t-107.5 -164t-163 -109t-222.5 -40.5t-222.5 40.5t-162.5 109t-106 164t-60 199t-18 220.5zM217 715q0 -92 10.5 -172 t40.5 -162t77.5 -140t128 -95t185.5 -37t185.5 37t128.5 95t78 140t40.5 162t10.5 172t-10.5 172t-40.5 162t-78 140t-128.5 95t-185.5 37t-185.5 -37t-128 -95t-77.5 -140t-40.5 -162t-10.5 -172zM498 1546l174 309h147l-213 -309h-108z" />
<glyph unicode="&#xd4;" horiz-adv-x="1318" d="M90 715q0 117 18 220.5t60 199t106 164t162.5 109t222.5 40.5t222.5 -40.5t163 -108.5t107.5 -163.5t61 -199.5t18 -221t-18 -220.5t-61 -199t-107.5 -164t-163 -109t-222.5 -40.5t-222.5 40.5t-162.5 109t-106 164t-60 199t-18 220.5zM217 715q0 -92 10.5 -172 t40.5 -162t77.5 -140t128 -95t185.5 -37t185.5 37t128.5 95t78 140t40.5 162t10.5 172t-10.5 172t-40.5 162t-78 140t-128.5 95t-185.5 37t-185.5 -37t-128 -95t-77.5 -140t-40.5 -162t-10.5 -172zM377 1548l221 303h123l221 -303h-135l-150 232l-147 -232h-133z" />
<glyph unicode="&#xd5;" horiz-adv-x="1318" d="M90 715q0 117 18 220.5t60 199t106 164t162.5 109t222.5 40.5t222.5 -40.5t163 -108.5t107.5 -163.5t61 -199.5t18 -221t-18 -220.5t-61 -199t-107.5 -164t-163 -109t-222.5 -40.5t-222.5 40.5t-162.5 109t-106 164t-60 199t-18 220.5zM217 715q0 -92 10.5 -172 t40.5 -162t77.5 -140t128 -95t185.5 -37t185.5 37t128.5 95t78 140t40.5 162t10.5 172t-10.5 172t-40.5 162t-78 140t-128.5 95t-185.5 37t-185.5 -37t-128 -95t-77.5 -140t-40.5 -162t-10.5 -172zM358 1649q37 58 78.5 85t100.5 27q41 0 75.5 -17t55.5 -38t51.5 -38 t62.5 -17q62 0 109 75l70 -65q-41 -57 -80.5 -85t-96.5 -28q-40 0 -74.5 17.5t-56 38t-52.5 38t-64 17.5q-58 0 -109 -74z" />
<glyph unicode="&#xd6;" horiz-adv-x="1318" d="M90 715q0 117 18 220.5t60 199t106 164t162.5 109t222.5 40.5t222.5 -40.5t163 -108.5t107.5 -163.5t61 -199.5t18 -221t-18 -220.5t-61 -199t-107.5 -164t-163 -109t-222.5 -40.5t-222.5 40.5t-162.5 109t-106 164t-60 199t-18 220.5zM217 715q0 -92 10.5 -172 t40.5 -162t77.5 -140t128 -95t185.5 -37t185.5 37t128.5 95t78 140t40.5 162t10.5 172t-10.5 172t-40.5 162t-78 140t-128.5 95t-185.5 37t-185.5 -37t-128 -95t-77.5 -140t-40.5 -162t-10.5 -172zM379 1653q0 38 27 65t65 27q37 0 64.5 -27t27.5 -65t-27.5 -64t-64.5 -26 q-38 0 -65 26t-27 64zM758 1653q0 38 27 65t65 27t64 -27t26 -65t-26 -64t-64 -26t-65 26t-27 64z" />
<glyph unicode="&#xd7;" horiz-adv-x="929" d="M129 299l260 262l-260 260l76 76l260 -262l262 262l74 -76l-260 -260l260 -262l-74 -74l-262 260l-260 -260z" />
<glyph unicode="&#xd8;" horiz-adv-x="1318" d="M90 715q0 118 18 221.5t60 199t106 163.5t162.5 108.5t222.5 40.5q156 0 295 -80l37 68h113l-70 -127q197 -204 197 -594q0 -117 -18 -220.5t-61 -199t-107.5 -164t-163 -109t-222.5 -40.5q-164 0 -301 86l-39 -74h-114l74 135q-189 204 -189 586zM217 715 q0 -287 125 -463l553 1003q-109 66 -236 66q-105 0 -185.5 -37t-128 -95t-77.5 -140t-40.5 -162t-10.5 -172zM418 182q106 -73 241 -73q105 0 185.5 37t128.5 95t78 140t40.5 162t10.5 172q0 299 -131 471z" />
<glyph unicode="&#xd9;" horiz-adv-x="1310" d="M137 606v824h129v-820q0 -84 8.5 -151.5t34 -135.5t67.5 -113t113 -73t166 -28q96 0 167.5 28t113.5 73t67.5 112.5t34.5 135t9 152.5v820h127v-824q0 -143 -26.5 -253t-85 -195.5t-161 -130.5t-246.5 -45q-518 0 -518 624zM494 1855h149l172 -309h-106z" />
<glyph unicode="&#xda;" horiz-adv-x="1310" d="M137 606v824h129v-820q0 -84 8.5 -151.5t34 -135.5t67.5 -113t113 -73t166 -28q96 0 167.5 28t113.5 73t67.5 112.5t34.5 135t9 152.5v820h127v-824q0 -143 -26.5 -253t-85 -195.5t-161 -130.5t-246.5 -45q-518 0 -518 624zM494 1546l174 309h147l-213 -309h-108z" />
<glyph unicode="&#xdb;" horiz-adv-x="1310" d="M137 606v824h129v-820q0 -84 8.5 -151.5t34 -135.5t67.5 -113t113 -73t166 -28q96 0 167.5 28t113.5 73t67.5 112.5t34.5 135t9 152.5v820h127v-824q0 -143 -26.5 -253t-85 -195.5t-161 -130.5t-246.5 -45q-518 0 -518 624zM375 1548l219 303h123l221 -303h-135l-150 232 l-147 -232h-131z" />
<glyph unicode="&#xdc;" horiz-adv-x="1310" d="M137 606v824h129v-820q0 -84 8.5 -151.5t34 -135.5t67.5 -113t113 -73t166 -28q96 0 167.5 28t113.5 73t67.5 112.5t34.5 135t9 152.5v820h127v-824q0 -143 -26.5 -253t-85 -195.5t-161 -130.5t-246.5 -45q-518 0 -518 624zM375 1653q0 38 27 65t65 27q37 0 64.5 -27 t27.5 -65t-27.5 -64t-64.5 -26q-38 0 -65 26t-27 64zM754 1653q0 38 27 65t65 27q37 0 63.5 -27t26.5 -65t-26.5 -64t-63.5 -26q-38 0 -65 26t-27 64z" />
<glyph unicode="&#xdd;" horiz-adv-x="1179" d="M53 1430h144l395 -812l395 812h141l-473 -957v-473h-129v473zM430 1546l172 309h150l-215 -309h-107z" />
<glyph unicode="&#xde;" horiz-adv-x="1282" d="M180 0v1430h127v-295h402q225 0 351 -95.5t126 -302.5q0 -107 -35.5 -185t-101 -123t-149.5 -66t-191 -21h-402v-342h-127zM307 467h402q78 0 136 11t109 39t78 83.5t27 136.5q0 82 -27 138t-78 84t-109 39.5t-136 11.5h-402v-543z" />
<glyph unicode="&#xdf;" horiz-adv-x="1290" d="M137 0v987q0 95 20.5 174t63 141.5t114.5 98t169 35.5q93 0 163.5 -34t113 -95t64 -137.5t23.5 -168.5q100 -8 172 -49.5t123 -126.5l-96 -51q-72 121 -250 121q-37 0 -72 -6.5t-72 -21.5t-59 -47t-22 -77q0 -48 34.5 -81t89 -51t121 -33t133 -35t121 -49.5t89 -84 t34.5 -130.5q0 -93 -55 -162.5t-137.5 -102t-177.5 -32.5q-154 0 -261 61t-139 193l109 24q26 -89 104 -128.5t185 -39.5q42 0 83.5 9.5t81 29.5t63.5 57t24 86q0 56 -34.5 94t-89.5 59t-121.5 37t-132.5 35t-121 46t-89.5 77t-34.5 121q0 113 79.5 177t199.5 75 q-8 324 -246 324q-73 0 -124 -29.5t-76.5 -81t-36.5 -106.5t-11 -121v-981h-119z" />
<glyph unicode="&#xe0;" horiz-adv-x="970" d="M86 279q0 132 93 208.5t245 79.5h154q35 1 54 3.5t48 14t49 33.5v95q0 82 -70.5 133t-154.5 51q-86 0 -157 -35.5t-103 -109.5l-107 36q89 220 371 220q84 0 160.5 -34.5t126 -101t49.5 -149.5v-563l33 -150l-103 -24l-31 110q-138 -119 -303 -119q-153 0 -253.5 79 t-100.5 223zM201 279q0 -65 36.5 -110.5t89 -65t113.5 -19.5q87 0 155.5 29.5t133.5 93.5v305q-47 -25 -73 -32t-64 -7h-160q-97 0 -164 -49t-67 -145zM324 1403h147l174 -309h-106z" />
<glyph unicode="&#xe1;" horiz-adv-x="970" d="M86 279q0 132 93 208.5t245 79.5h154q35 1 54 3.5t48 14t49 33.5v95q0 82 -70.5 133t-154.5 51q-86 0 -157 -35.5t-103 -109.5l-107 36q89 220 371 220q84 0 160.5 -34.5t126 -101t49.5 -149.5v-563l33 -150l-103 -24l-31 110q-138 -119 -303 -119q-153 0 -253.5 79 t-100.5 223zM201 279q0 -65 36.5 -110.5t89 -65t113.5 -19.5q87 0 155.5 29.5t133.5 93.5v305q-47 -25 -73 -32t-64 -7h-160q-97 0 -164 -49t-67 -145zM324 1094l172 309h149l-215 -309h-106z" />
<glyph unicode="&#xe2;" horiz-adv-x="970" d="M86 279q0 132 93 208.5t245 79.5h154q35 1 54 3.5t48 14t49 33.5v95q0 82 -70.5 133t-154.5 51q-86 0 -157 -35.5t-103 -109.5l-107 36q89 220 371 220q84 0 160.5 -34.5t126 -101t49.5 -149.5v-563l33 -150l-103 -24l-31 110q-138 -119 -303 -119q-153 0 -253.5 79 t-100.5 223zM201 279q0 -65 36.5 -110.5t89 -65t113.5 -19.5q87 0 155.5 29.5t133.5 93.5v305q-47 -25 -73 -32t-64 -7h-160q-97 0 -164 -49t-67 -145zM203 1096l221 303h121l221 -303h-133l-150 231l-147 -231h-133z" />
<glyph unicode="&#xe3;" horiz-adv-x="970" d="M86 279q0 132 93 208.5t245 79.5h154q35 1 54 3.5t48 14t49 33.5v95q0 82 -70.5 133t-154.5 51q-86 0 -157 -35.5t-103 -109.5l-107 36q89 220 371 220q84 0 160.5 -34.5t126 -101t49.5 -149.5v-563l33 -150l-103 -24l-31 110q-138 -119 -303 -119q-153 0 -253.5 79 t-100.5 223zM184 1196q37 59 77 86t99 27q41 0 76.5 -17.5t57 -38t52 -38t62.5 -17.5q63 0 107 76l71 -66q-41 -57 -80 -84.5t-96 -27.5q-40 0 -75 17t-57 38t-53 38t-63 17q-36 0 -59.5 -18.5t-48.5 -54.5zM201 279q0 -65 36.5 -110.5t89 -65t113.5 -19.5q87 0 155.5 29.5 t133.5 93.5v305q-47 -25 -73 -32t-64 -7h-160q-97 0 -164 -49t-67 -145z" />
<glyph unicode="&#xe4;" horiz-adv-x="970" d="M86 279q0 132 93 208.5t245 79.5h154q35 1 54 3.5t48 14t49 33.5v95q0 82 -70.5 133t-154.5 51q-86 0 -157 -35.5t-103 -109.5l-107 36q89 220 371 220q84 0 160.5 -34.5t126 -101t49.5 -149.5v-563l33 -150l-103 -24l-31 110q-138 -119 -303 -119q-153 0 -253.5 79 t-100.5 223zM201 279q0 -65 36.5 -110.5t89 -65t113.5 -19.5q87 0 155.5 29.5t133.5 93.5v305q-47 -25 -73 -32t-64 -7h-160q-97 0 -164 -49t-67 -145zM205 1200q0 38 26 65t64 27t65 -27t27 -65t-27 -64t-65 -26t-64 26t-26 64zM582 1200q0 38 27.5 65t64.5 27q38 0 65 -27 t27 -65t-27 -64t-65 -26q-37 0 -64.5 26t-27.5 64z" />
<glyph unicode="&#xe5;" horiz-adv-x="970" d="M86 279q0 132 93 208.5t245 79.5h154q35 1 54 3.5t48 14t49 33.5v95q0 82 -70.5 133t-154.5 51q-86 0 -157 -35.5t-103 -109.5l-107 36q89 220 371 220q84 0 160.5 -34.5t126 -101t49.5 -149.5v-563l33 -150l-103 -24l-31 110q-138 -119 -303 -119q-153 0 -253.5 79 t-100.5 223zM201 279q0 -65 36.5 -110.5t89 -65t113.5 -19.5q87 0 155.5 29.5t133.5 93.5v305q-47 -25 -73 -32t-64 -7h-160q-97 0 -164 -49t-67 -145zM274 1309q0 87 62 148t151 61q86 0 147.5 -61.5t61.5 -147.5q0 -88 -61.5 -150.5t-147.5 -62.5q-89 0 -151 62.5 t-62 150.5zM373 1309q0 -47 33.5 -80t80.5 -33q45 0 78 33t33 80q0 45 -33 77.5t-78 32.5q-47 0 -80.5 -32t-33.5 -78z" />
<glyph unicode="&#xe6;" horiz-adv-x="1581" d="M78 279q0 134 92.5 211t243.5 77h141q33 0 51 1t49.5 13.5t49.5 36.5v89q0 78 -68 131t-150 53q-190 0 -254 -146l-106 33q41 107 133 165t232 58q199 0 294 -178q66 100 150 139t190 39q79 0 142.5 -25.5t106.5 -69t71.5 -103.5t41.5 -127.5t13 -143.5v-59h-680 q10 -377 322 -377q150 0 243 107l84 -80q-122 -141 -327 -141q-237 0 -346 165q-89 -92 -174.5 -131t-198.5 -39q-149 0 -247.5 78t-98.5 224zM190 283q0 -92 68.5 -142.5t167.5 -50.5q88 0 160 36t149 114q-30 96 -30 272q-58 -39 -132 -39h-155q-94 0 -161 -48t-67 -142z M821 561h565q-2 70 -17.5 127.5t-46 103.5t-81.5 71.5t-119 25.5q-138 0 -216.5 -89t-84.5 -239z" />
<glyph unicode="&#xe7;" horiz-adv-x="964" d="M86 494q0 147 49 261t152.5 183.5t249.5 69.5q109 0 185 -37t155 -119l-86 -78q-57 61 -115.5 91t-138.5 30q-89 0 -154.5 -33.5t-101 -92t-52 -126.5t-16.5 -149q0 -80 16.5 -148t52 -126.5t101 -92t154.5 -33.5q80 0 138.5 30t115.5 91l86 -78q-69 -70 -136 -107 t-155 -44l57 -142l-133 -250h-135l174 259l-55 133q-133 10 -227 81.5t-137.5 181t-43.5 245.5z" />
<glyph unicode="&#xe8;" horiz-adv-x="989" d="M86 494q0 111 25 202t76 161.5t136.5 109.5t198.5 39q186 0 283.5 -127.5t97.5 -333.5v-70h-690q7 -381 326 -381q161 0 254 103l81 -74q-132 -141 -335 -141q-116 0 -204 38t-142 107t-80.5 161t-26.5 206zM213 563h575q-2 71 -17.5 128t-45.5 104t-83 72.5t-124 25.5 q-278 0 -305 -330zM334 1403h149l172 -309h-106z" />
<glyph unicode="&#xe9;" horiz-adv-x="989" d="M86 494q0 111 25 202t76 161.5t136.5 109.5t198.5 39q186 0 283.5 -127.5t97.5 -333.5v-70h-690q7 -381 326 -381q161 0 254 103l81 -74q-132 -141 -335 -141q-116 0 -204 38t-142 107t-80.5 161t-26.5 206zM213 563h575q-2 71 -17.5 128t-45.5 104t-83 72.5t-124 25.5 q-278 0 -305 -330zM334 1094l174 309h147l-215 -309h-106z" />
<glyph unicode="&#xea;" horiz-adv-x="989" d="M86 494q0 111 25 202t76 161.5t136.5 109.5t198.5 39q186 0 283.5 -127.5t97.5 -333.5v-70h-690q7 -381 326 -381q161 0 254 103l81 -74q-132 -141 -335 -141q-116 0 -204 38t-142 107t-80.5 161t-26.5 206zM213 563h575q-2 71 -17.5 128t-45.5 104t-83 72.5t-124 25.5 q-278 0 -305 -330zM213 1096l221 303h121l223 -303h-135l-149 231l-148 -231h-133z" />
<glyph unicode="&#xeb;" horiz-adv-x="989" d="M86 494q0 111 25 202t76 161.5t136.5 109.5t198.5 39q186 0 283.5 -127.5t97.5 -333.5v-70h-690q7 -381 326 -381q161 0 254 103l81 -74q-132 -141 -335 -141q-116 0 -204 38t-142 107t-80.5 161t-26.5 206zM213 563h575q-2 71 -17.5 128t-45.5 104t-83 72.5t-124 25.5 q-278 0 -305 -330zM215 1200q0 38 26 65t64 27t65 -27t27 -65t-27 -64t-65 -26t-64 26t-26 64zM592 1200q0 38 28 65t66 27q37 0 63.5 -27t26.5 -65t-26.5 -64t-63.5 -26q-39 0 -66.5 26t-27.5 64z" />
<glyph unicode="&#xec;" horiz-adv-x="446" d="M-51 1403h149l172 -309h-106zM164 0v989h119v-989h-119z" />
<glyph unicode="&#xed;" horiz-adv-x="444" d="M162 0v989h119v-989h-119zM172 1094l174 309h148l-213 -309h-109z" />
<glyph unicode="&#xee;" horiz-adv-x="444" d="M-59 1096l219 303h123l221 -303h-133l-150 231l-147 -231h-133zM164 0v989h121v-989h-121z" />
<glyph unicode="&#xef;" horiz-adv-x="446" d="M-57 1200q0 38 26 65t64 27t65 -27t27 -65t-27 -64t-65 -26t-64 26t-26 64zM164 0v989h121v-989h-121zM319 1200q0 38 28 65t67 27q37 0 63.5 -27t26.5 -65t-26.5 -64t-63.5 -26q-39 0 -67 26t-28 64z" />
<glyph unicode="&#xf0;" horiz-adv-x="1101" d="M131 487q0 113 22 201.5t70 158t131 107t197 37.5q91 0 180 -41l-102 226h-250v98h207l-119 262h111l116 -262h185v-98h-140q137 -286 170 -345q38 -70 50 -153t12 -191q0 -89 -13.5 -163.5t-44.5 -139t-78.5 -108.5t-119 -69t-162.5 -25q-93 0 -166 26t-120.5 70.5 t-78.5 109.5t-44 138.5t-13 160.5zM242 487q0 -68 7 -121.5t27 -107t53 -89t89.5 -57.5t132.5 -22q77 0 133.5 22.5t90 58.5t53.5 90t27 107t7 119q0 68 -7 122t-27.5 108.5t-54 90.5t-90 58.5t-132.5 22.5q-77 0 -134 -23t-90 -59.5t-52.5 -91.5t-26 -108t-6.5 -120z" />
<glyph unicode="&#xf1;" horiz-adv-x="1048" d="M141 0v989h105l4 -131q48 76 124 113t156 37q207 0 303.5 -117.5t96.5 -329.5v-561h-121v559q0 75 -13.5 131.5t-44 103t-87.5 71t-138 24.5q-110 0 -187 -73t-77 -163v-653h-121zM221 1196q39 59 79 86t99 27q41 0 76 -17.5t56.5 -38t51.5 -38t62 -17.5q37 0 61.5 19.5 t47.5 56.5l71 -66q-41 -57 -80.5 -84.5t-95.5 -27.5q-41 0 -76 17t-56.5 38t-52.5 38t-63 17q-36 0 -59.5 -18.5t-48.5 -54.5z" />
<glyph unicode="&#xf2;" horiz-adv-x="1019" d="M86 492q0 114 22 204.5t70.5 161.5t132 109.5t199.5 38.5q115 0 198.5 -38.5t132 -109.5t71 -161.5t22.5 -204.5q0 -113 -22.5 -202.5t-71 -160t-132 -109t-198.5 -38.5t-199 38.5t-132.5 109t-70.5 160t-22 202.5zM209 492q0 -66 6.5 -118t26 -106t51.5 -89.5t87.5 -58 t129.5 -22.5t129 22.5t87 58.5t52 89t26.5 106t6.5 118q0 66 -6.5 119t-26 107t-51.5 90t-87.5 58.5t-129.5 22.5t-129.5 -22.5t-87.5 -58.5t-51.5 -90t-26 -107t-6.5 -119zM348 1403h150l172 -309h-107z" />
<glyph unicode="&#xf3;" horiz-adv-x="1019" d="M86 492q0 114 22 204.5t70.5 161.5t132 109.5t199.5 38.5q115 0 198.5 -38.5t132 -109.5t71 -161.5t22.5 -204.5q0 -113 -22.5 -202.5t-71 -160t-132 -109t-198.5 -38.5t-199 38.5t-132.5 109t-70.5 160t-22 202.5zM209 492q0 -66 6.5 -118t26 -106t51.5 -89.5t87.5 -58 t129.5 -22.5t129 22.5t87 58.5t52 89t26.5 106t6.5 118q0 66 -6.5 119t-26 107t-51.5 90t-87.5 58.5t-129.5 22.5t-129.5 -22.5t-87.5 -58.5t-51.5 -90t-26 -107t-6.5 -119zM348 1094l174 309h148l-213 -309h-109z" />
<glyph unicode="&#xf4;" horiz-adv-x="1019" d="M86 492q0 114 22 204.5t70.5 161.5t132 109.5t199.5 38.5q115 0 198.5 -38.5t132 -109.5t71 -161.5t22.5 -204.5q0 -113 -22.5 -202.5t-71 -160t-132 -109t-198.5 -38.5t-199 38.5t-132.5 109t-70.5 160t-22 202.5zM209 492q0 -66 6.5 -118t26 -106t51.5 -89.5t87.5 -58 t129.5 -22.5t129 22.5t87 58.5t52 89t26.5 106t6.5 118q0 66 -6.5 119t-26 107t-51.5 90t-87.5 58.5t-129.5 22.5t-129.5 -22.5t-87.5 -58.5t-51.5 -90t-26 -107t-6.5 -119zM229 1096l220 303h122l222 -303h-134l-149 231l-150 -231h-131z" />
<glyph unicode="&#xf5;" horiz-adv-x="1019" d="M86 492q0 114 22 204.5t70.5 161.5t132 109.5t199.5 38.5q115 0 198.5 -38.5t132 -109.5t71 -161.5t22.5 -204.5q0 -113 -22.5 -202.5t-71 -160t-132 -109t-198.5 -38.5t-199 38.5t-132.5 109t-70.5 160t-22 202.5zM209 492q0 -66 6.5 -118t26 -106t51.5 -89.5t87.5 -58 t129.5 -22.5t129 22.5t87 58.5t52 89t26.5 106t6.5 118q0 66 -6.5 119t-26 107t-51.5 90t-87.5 58.5t-129.5 22.5t-129.5 -22.5t-87.5 -58.5t-51.5 -90t-26 -107t-6.5 -119zM209 1196q37 58 78 85.5t100 27.5q41 0 76 -17.5t56 -38t51.5 -38t62.5 -17.5q35 0 60 19.5 t48 56.5l70 -66q-41 -57 -80 -84.5t-96 -27.5q-33 0 -61.5 11.5t-49 27.5t-40.5 32t-45 27.5t-52 11.5q-35 0 -59.5 -19t-48.5 -54z" />
<glyph unicode="&#xf6;" horiz-adv-x="1019" d="M86 492q0 114 22 204.5t70.5 161.5t132 109.5t199.5 38.5q115 0 198.5 -38.5t132 -109.5t71 -161.5t22.5 -204.5q0 -113 -22.5 -202.5t-71 -160t-132 -109t-198.5 -38.5t-199 38.5t-132.5 109t-70.5 160t-22 202.5zM209 492q0 -66 6.5 -118t26 -106t51.5 -89.5t87.5 -58 t129.5 -22.5t129 22.5t87 58.5t52 89t26.5 106t6.5 118q0 66 -6.5 119t-26 107t-51.5 90t-87.5 58.5t-129.5 22.5t-129.5 -22.5t-87.5 -58.5t-51.5 -90t-26 -107t-6.5 -119zM229 1200q0 38 27.5 65t65.5 27q37 0 64.5 -27t27.5 -65t-27.5 -64t-64.5 -26q-39 0 -66 26t-27 64 zM608 1200q0 38 27 65t65 27t64.5 -27t26.5 -65t-26.5 -64t-64.5 -26t-65 26t-27 64z" />
<glyph unicode="&#xf7;" horiz-adv-x="1058" d="M115 510v102h831v-102h-831zM436 231q0 37 26.5 62.5t63.5 25.5t62.5 -25.5t25.5 -62.5t-25.5 -63.5t-62.5 -26.5t-63.5 26.5t-26.5 63.5zM436 891q0 37 26.5 63.5t63.5 26.5t62.5 -26.5t25.5 -63.5t-25.5 -62.5t-62.5 -25.5t-63.5 25.5t-26.5 62.5z" />
<glyph unicode="&#xf8;" horiz-adv-x="1056" d="M86 492q0 114 22 203.5t70.5 160.5t132 109.5t199.5 38.5q114 0 211 -50l27 50h98l-51 -95q139 -136 139 -417q0 -114 -22 -203.5t-70.5 -160t-132 -108.5t-199.5 -38q-117 0 -215 49l-25 -43h-94l47 88q-137 137 -137 416zM209 492q0 -182 76 -295l379 649 q-72 41 -154 41q-74 0 -129.5 -22.5t-87.5 -58.5t-51.5 -89.5t-26 -106t-6.5 -118.5zM352 139q67 -41 158 -41q74 -1 129 21.5t87 58.5t52 89.5t26.5 106.5t6.5 118q0 185 -78 294z" />
<glyph unicode="&#xf9;" horiz-adv-x="1042" d="M121 412v577h121v-571q0 -77 12.5 -132t43 -98.5t86.5 -65.5t138 -22q60 0 120 26t103 79t43 119v665h121v-989h-104l-4 121q-113 -137 -281 -137q-209 0 -304 107.5t-95 320.5zM358 1403h150l172 -309h-107z" />
<glyph unicode="&#xfa;" horiz-adv-x="1042" d="M121 412v577h121v-571q0 -77 12.5 -132t43 -98.5t86.5 -65.5t138 -22q60 0 120 26t103 79t43 119v665h121v-989h-104l-4 121q-113 -137 -281 -137q-209 0 -304 107.5t-95 320.5zM358 1094l174 309h148l-213 -309h-109z" />
<glyph unicode="&#xfb;" horiz-adv-x="1042" d="M121 412v577h121v-571q0 -77 12.5 -132t43 -98.5t86.5 -65.5t138 -22q60 0 120 26t103 79t43 119v665h121v-989h-104l-4 121q-113 -137 -281 -137q-209 0 -304 107.5t-95 320.5zM240 1096l219 303h123l221 -303h-133l-152 231l-147 -231h-131z" />
<glyph unicode="&#xfc;" horiz-adv-x="1042" d="M121 412v577h121v-571q0 -77 12.5 -132t43 -98.5t86.5 -65.5t138 -22q60 0 120 26t103 79t43 119v665h121v-989h-104l-4 121q-113 -137 -281 -137q-209 0 -304 107.5t-95 320.5zM240 1200q0 38 27 65t65 27q37 0 64.5 -27t27.5 -65t-27.5 -64t-64.5 -26q-38 0 -65 26 t-27 64zM618 1200q0 38 27.5 65t65.5 27t64 -27t26 -65t-26 -64t-64 -26q-39 0 -66 26t-27 64z" />
<glyph unicode="&#xfd;" horiz-adv-x="964" d="M47 989h127l307 -839l307 839h130l-469 -1239q-40 -106 -114.5 -154.5t-187.5 -48.5h-26v107h24q82 0 126 33.5t69 101.5l78 205zM322 1094l172 309h149l-215 -309h-106z" />
<glyph unicode="&#xfe;" horiz-adv-x="1048" d="M170 -442v1872h121v-549q95 123 266 123q113 0 194.5 -40.5t126.5 -113.5t65 -160t20 -194q0 -86 -12.5 -159.5t-42 -139t-74.5 -111.5t-115 -73t-160 -27q-178 0 -268 116v-544h-121zM291 346q0 -109 78 -173t188 -64q72 0 125.5 24t83.5 60.5t47.5 90.5t23 102.5 t5.5 109.5q0 62 -5.5 111.5t-23.5 103.5t-48 89.5t-83 59t-125 23.5q-111 0 -188.5 -65.5t-77.5 -172.5v-299z" />
<glyph unicode="&#xff;" horiz-adv-x="964" d="M47 989h127l307 -839l307 839h130l-469 -1239q-40 -106 -114.5 -154.5t-187.5 -48.5h-26v107h24q82 0 126 33.5t69 101.5l78 205zM201 1200q0 38 27 65t65 27t65 -27t27 -65t-27 -64t-65 -26t-65 26t-27 64zM580 1200q0 38 27 65t65 27t65 -27t27 -65t-27 -64t-65 -26 t-65 26t-27 64z" />
<glyph unicode="&#x152;" horiz-adv-x="2064" d="M90 715q0 117 18 221t60 199.5t105 163.5t160.5 108.5t219.5 40.5q64 0 124.5 -14t120.5 -44t110.5 -85t81.5 -129v254h864v-127h-735v-500h636v-123h-636v-553h735v-127h-864v260q-35 -78 -85.5 -134.5t-110 -86.5t-118.5 -43.5t-123 -13.5q-122 0 -219.5 40.5 t-160.5 109t-105 164t-60 199t-18 220.5zM217 715q0 -64 5 -122.5t18.5 -120.5t35 -114t56 -99t78.5 -79.5t106 -51.5t137 -19q103 0 182.5 37t126.5 95t77 140t40.5 162t10.5 172t-10.5 172t-40.5 162t-77 140t-126.5 95t-182.5 37q-75 0 -137 -19t-106 -51.5t-78.5 -79.5 t-56 -99t-35 -114t-18.5 -120.5t-5 -122.5z" />
<glyph unicode="&#x153;" horiz-adv-x="1679" d="M86 492q0 113 22 203.5t69.5 161t129.5 109t195 38.5q244 0 358 -222q122 219 361 219q97 0 171 -37.5t117 -103t64 -147t20 -176.5v-64h-675q6 -181 80.5 -279t240.5 -98q69 0 135 27.5t115 79.5l86 -78q-134 -143 -338 -143q-257 0 -375 219q-116 -219 -360 -219 q-113 0 -195 38t-129.5 108.5t-69.5 160.5t-22 203zM207 492q0 -65 6.5 -118t25.5 -106t51 -89t86 -58.5t126 -22.5t125.5 22.5t85.5 58.5t51.5 89t26 106t6.5 118t-6.5 118t-25.5 106.5t-51 89.5t-86 58.5t-126 22.5t-126 -22.5t-86 -58.5t-51 -89.5t-25.5 -106.5 t-6.5 -118zM922 561h559q-11 328 -264 328q-272 0 -295 -328z" />
<glyph unicode="&#x178;" horiz-adv-x="1179" d="M53 1430h144l395 -812l395 812h141l-473 -957v-473h-129v473zM309 1653q0 38 26 65t64 27t65.5 -27t27.5 -65t-27 -64t-66 -26q-38 0 -64 26t-26 64zM686 1653q0 38 28 65t66 27q37 0 63.5 -27t26.5 -65t-26.5 -64t-63.5 -26q-39 0 -66.5 26t-27.5 64z" />
<glyph unicode="&#x2c6;" horiz-adv-x="1040" d="M236 1096l219 303h123l221 -303h-133l-150 231l-147 -231h-133z" />
<glyph unicode="&#x2dc;" horiz-adv-x="1036" d="M213 1196q37 59 77.5 86t100.5 27q41 0 76 -17.5t56 -38t51.5 -38t62.5 -17.5q62 0 106 76l72 -66q-41 -57 -80 -84.5t-96 -27.5q-33 0 -61.5 11.5t-49 27.5t-40.5 32t-45 27.5t-52 11.5q-35 0 -59.5 -19t-48.5 -54z" />
<glyph unicode="&#x2000;" horiz-adv-x="985" />
<glyph unicode="&#x2001;" horiz-adv-x="1970" />
<glyph unicode="&#x2002;" horiz-adv-x="985" />
<glyph unicode="&#x2003;" horiz-adv-x="1970" />
<glyph unicode="&#x2004;" horiz-adv-x="656" />
<glyph unicode="&#x2005;" horiz-adv-x="492" />
<glyph unicode="&#x2006;" horiz-adv-x="328" />
<glyph unicode="&#x2007;" horiz-adv-x="328" />
<glyph unicode="&#x2008;" horiz-adv-x="246" />
<glyph unicode="&#x2009;" horiz-adv-x="394" />
<glyph unicode="&#x200a;" horiz-adv-x="109" />
<glyph unicode="&#x2010;" horiz-adv-x="811" d="M131 506v104h551v-104h-551z" />
<glyph unicode="&#x2011;" horiz-adv-x="811" d="M131 506v104h551v-104h-551z" />
<glyph unicode="&#x2012;" horiz-adv-x="811" d="M131 506v104h551v-104h-551z" />
<glyph unicode="&#x2013;" horiz-adv-x="1081" d="M117 506v104h848v-104h-848z" />
<glyph unicode="&#x2014;" horiz-adv-x="1617" d="M117 506v104h1386v-104h-1386z" />
<glyph unicode="&#x2018;" d="M166 1182l14 96l131 221h35l-12 -317q-2 -34 -26.5 -59t-57.5 -25q-36 0 -61.5 25.5t-22.5 58.5z" />
<glyph unicode="&#x2019;" d="M150 1112l10 315q0 35 24.5 59.5t57.5 24.5q36 0 62.5 -25t23.5 -59l-13 -96l-133 -221z" />
<glyph unicode="&#x201a;" d="M160 -201l10 314q0 36 24.5 61t57.5 25q36 0 62.5 -25t23.5 -59l-12 -97l-131 -219h-35z" />
<glyph unicode="&#x201c;" horiz-adv-x="788" d="M131 1182q-3 -33 22.5 -58.5t61.5 -25.5q33 0 57.5 25t26.5 59l12 317h-35l-131 -221zM461 1182l12 96l133 221h33l-10 -317q-2 -34 -26.5 -59t-59.5 -25q-34 0 -59.5 25.5t-22.5 58.5z" />
<glyph unicode="&#x201d;" horiz-adv-x="788" d="M147 1098l11 317q2 34 26.5 59t59.5 25q34 0 59.5 -25.5t22.5 -58.5l-13 -96l-133 -221h-33zM475 1098h35l131 221l14 96q3 33 -22.5 58.5t-61.5 25.5q-33 0 -57.5 -25t-26.5 -59z" />
<glyph unicode="&#x201e;" horiz-adv-x="788" d="M156 -231l10 317q2 34 26.5 59t59.5 25q34 0 59.5 -25.5t22.5 -58.5l-12 -96l-134 -221h-32zM483 -231h35l131 221l15 96q3 33 -22.5 58.5t-61.5 25.5q-33 0 -57.5 -25t-26.5 -59z" />
<glyph unicode="&#x2022;" horiz-adv-x="944" d="M156 690q0 130 93 223t224 93q132 0 223.5 -92.5t91.5 -223.5q0 -132 -91.5 -224.5t-223.5 -92.5q-131 0 -224 92.5t-93 224.5z" />
<glyph unicode="&#x2026;" horiz-adv-x="1165" d="M147 82q0 41 30 70.5t71 29.5q42 0 71 -29t29 -71t-29 -71t-71 -29q-41 0 -71 29.5t-30 70.5zM483 82q0 41 30 70.5t71 29.5t70.5 -29.5t29.5 -70.5t-29.5 -70.5t-70.5 -29.5t-71 29.5t-30 70.5zM819 82q0 41 30 70.5t71 29.5q40 0 70 -29.5t30 -70.5t-30 -70.5 t-70 -29.5q-41 0 -71 29.5t-30 70.5z" />
<glyph unicode="&#x202f;" horiz-adv-x="394" />
<glyph unicode="&#x2039;" horiz-adv-x="647" d="M102 473v98l430 398l-2 -140l-337 -307l337 -307v-139z" />
<glyph unicode="&#x203a;" horiz-adv-x="647" d="M102 76v139l336 307l-336 307v140l430 -398v-98z" />
<glyph unicode="&#x205f;" horiz-adv-x="492" />
<glyph unicode="&#x20ac;" horiz-adv-x="1288" d="M100 492l19 96h121q-6 116 -4 198h-136l19 95h129q16 122 57.5 223t109.5 179t170 121.5t230 43.5q123 0 211.5 -38t167.5 -118l-80 -96q-68 65 -137 95t-162 30q-189 0 -297.5 -120.5t-134.5 -319.5h491l-18 -95h-489q-2 -121 4 -198h503l-18 -96h-469q39 -177 149 -280 t279 -103q93 0 163 31.5t138 97.5l82 -95q-85 -86 -170 -123.5t-213 -37.5q-224 0 -370.5 138t-190.5 372h-154z" />
<glyph unicode="&#x2122;" horiz-adv-x="983" d="M90 1374v56h322v-56h-133v-375h-54v375h-135zM473 999v431h55l142 -359l141 359h57v-431h-55v306l-119 -306h-49l-119 306v-306h-53z" />
<glyph unicode="&#x25fc;" horiz-adv-x="990" d="M0 0v990h990v-990h-990z" />
<glyph unicode="&#xfb01;" horiz-adv-x="1064" d="M102 883v106h105v78q0 76 16.5 135.5t55 110.5t111 81t175.5 36v-103q-133 -9 -187 -77t-54 -208v-53h573v-989h-119v883h-454v-883h-117v883h-105zM745 1354q0 38 27.5 65t67.5 27q38 0 66 -27t28 -65t-28 -66t-66 -28q-40 0 -67.5 28t-27.5 66z" />
</font>
</defs>
</svg>
